<svg width="25" height="24" viewBox="0 0 25 24" fill="none" xmlns="http://www.w3.org/2000/svg">
<path d="M15.2822 0.568536C14.2423 0.168561 13.091 0.168561 12.0512 0.568536L4.60966 3.43054C4.18506 3.59368 3.81987 3.8817 3.56226 4.25659C3.30465 4.63149 3.16673 5.07566 3.16666 5.53054V9.38554C3.64466 9.21554 4.14466 9.10054 4.66666 9.04053V5.95954L12.9167 9.49504V20.0685L13.5797 20.7315C14.1612 20.7425 14.7394 20.6406 15.2822 20.4315L22.7252 17.5695C23.1495 17.4061 23.5144 17.118 23.7717 16.7432C24.029 16.3683 24.1667 15.9242 24.1667 15.4695V5.53054C24.1667 5.07584 24.029 4.63179 23.7717 4.25692C23.5144 3.88204 23.1495 3.59392 22.7252 3.43054L15.2822 0.568536ZM12.5897 1.96804C13.2829 1.70139 14.0504 1.70139 14.7437 1.96804L21.8207 4.69054L18.9002 5.94154L10.5137 2.76754L12.5897 1.96804ZM14.4167 9.49504L22.6667 5.95954V15.4695C22.6668 15.6211 22.621 15.7692 22.5354 15.8943C22.4497 16.0193 22.3281 16.1155 22.1867 16.17L14.7437 19.032C14.6367 19.074 14.5277 19.109 14.4167 19.137V9.49504ZM13.6667 8.18404L5.51266 4.68904L8.41216 3.57454L16.9127 6.79354L13.6667 8.18404ZM5.41666 21C6.59566 21 7.68467 20.61 8.56067 19.9545L12.3857 23.7795C12.4553 23.8493 12.538 23.9046 12.629 23.9424C12.72 23.9802 12.8176 23.9996 12.9161 23.9997C13.0147 23.9998 13.1123 23.9804 13.2033 23.9428C13.2944 23.9051 13.3772 23.8499 13.4469 23.7803C13.5166 23.7107 13.572 23.628 13.6098 23.5369C13.6475 23.4459 13.667 23.3484 13.6671 23.2498C13.6672 23.1513 13.6478 23.0537 13.6102 22.9626C13.5725 22.8715 13.5173 22.7888 13.4477 22.719L9.62266 18.894C10.3307 17.9472 10.6984 16.7891 10.6662 15.6073C10.6341 14.4254 10.204 13.289 9.4455 12.3821C8.68706 11.4751 7.64469 10.8508 6.48718 10.61C5.32967 10.3693 4.12478 10.5263 3.06762 11.0556C2.01046 11.585 1.16292 12.4556 0.662219 13.5267C0.161523 14.5977 0.0369902 15.8063 0.308785 16.957C0.580581 18.1076 1.23279 19.1328 2.15981 19.8665C3.08683 20.6003 4.23439 20.9997 5.41666 21ZM5.41666 19.5C4.4221 19.5 3.46828 19.1049 2.76501 18.4017C2.06175 17.6984 1.66666 16.7446 1.66666 15.75C1.66666 14.7555 2.06175 13.8016 2.76501 13.0984C3.46828 12.3951 4.4221 12 5.41666 12C6.41123 12 7.36505 12.3951 8.06832 13.0984C8.77158 13.8016 9.16666 14.7555 9.16666 15.75C9.16666 16.7446 8.77158 17.6984 8.06832 18.4017C7.36505 19.1049 6.41123 19.5 5.41666 19.5Z" fill="#383A47"/>
</svg>
