<svg width="25" height="24" viewBox="0 0 25 24" fill="none" xmlns="http://www.w3.org/2000/svg">
<path fill-rule="evenodd" clip-rule="evenodd" d="M16.8636 8.72716C16.8636 9.88447 16.4039 10.9944 15.5855 11.8127C14.7672 12.6311 13.6573 13.0908 12.5 13.0908C11.3427 13.0908 10.2328 12.6311 9.41444 11.8127C8.5961 10.9944 8.13636 9.88447 8.13636 8.72716C8.13636 7.56985 8.5961 6.45994 9.41444 5.6416C10.2328 4.82326 11.3427 4.36353 12.5 4.36353C13.6573 4.36353 14.7672 4.82326 15.5855 5.6416C16.4039 6.45994 16.8636 7.56985 16.8636 8.72716ZM14.6818 8.72716C14.6818 9.30582 14.4519 9.86077 14.0428 10.2699C13.6336 10.6791 13.0786 10.909 12.5 10.909C11.9213 10.909 11.3664 10.6791 10.9572 10.2699C10.548 9.86077 10.3182 9.30582 10.3182 8.72716C10.3182 8.14851 10.548 7.59355 10.9572 7.18438C11.3664 6.77521 11.9213 6.54534 12.5 6.54534C13.0786 6.54534 13.6336 6.77521 14.0428 7.18438C14.4519 7.59355 14.6818 8.14851 14.6818 8.72716Z" fill="#383A47"/>
<path fill-rule="evenodd" clip-rule="evenodd" d="M12.5 0C5.87273 0 0.5 5.37273 0.5 12C0.5 18.6273 5.87273 24 12.5 24C19.1273 24 24.5 18.6273 24.5 12C24.5 5.37273 19.1273 0 12.5 0ZM2.68182 12C2.68182 14.28 3.45964 16.3789 4.76327 18.0458C5.67903 16.8438 6.86017 15.8696 8.21452 15.1993C9.56886 14.5291 11.0598 14.1808 12.5709 14.1818C14.0626 14.1801 15.535 14.519 16.8758 15.1728C18.2166 15.8265 19.3904 16.7779 20.3076 17.9542C21.2529 16.7145 21.8893 15.2675 22.1642 13.733C22.4392 12.1985 22.3448 10.6206 21.8889 9.1298C21.433 7.63902 20.6286 6.27823 19.5423 5.16004C18.4561 4.04185 17.1192 3.19839 15.6422 2.69946C14.1653 2.20054 12.5908 2.06048 11.0489 2.29088C9.50711 2.52128 8.04232 3.11552 6.77575 4.02442C5.50918 4.93333 4.47725 6.13077 3.76534 7.51767C3.05343 8.90457 2.68202 10.4411 2.68182 12ZM12.5 21.8182C10.2461 21.8218 8.06016 21.0464 6.31236 19.6233C7.01579 18.6159 7.95221 17.7935 9.0419 17.226C10.1316 16.6584 11.3423 16.3626 12.5709 16.3636C13.7842 16.3626 14.9802 16.651 16.0596 17.2051C17.139 17.7591 18.0706 18.5627 18.7771 19.5491C17.0158 21.0185 14.7938 21.8218 12.5 21.8182Z" fill="#383A47"/>
</svg>
