<svg width="25" height="24" viewBox="0 0 25 24" fill="none" xmlns="http://www.w3.org/2000/svg">
<path d="M8.83334 12V10H16.8333V12H8.83334ZM8.83334 8V6H16.8333V8H8.83334ZM6.83334 14H14.3333C14.8167 14 15.2667 14.1043 15.6833 14.313C16.1 14.5217 16.45 14.8173 16.7333 15.2L18.8333 17.95V4H6.83334V14ZM6.83334 20H17.8833L15.1583 16.425C15.0583 16.2917 14.9377 16.1877 14.7963 16.113C14.655 16.0383 14.5007 16.0007 14.3333 16H6.83334V20ZM18.8333 22H6.83334C6.28334 22 5.81268 21.8043 5.42134 21.413C5.03001 21.0217 4.83401 20.5507 4.83334 20V4C4.83334 3.45 5.02934 2.97933 5.42134 2.588C5.81334 2.19667 6.28401 2.00067 6.83334 2H18.8333C19.3833 2 19.8543 2.196 20.2463 2.588C20.6383 2.98 20.834 3.45067 20.8333 4V20C20.8333 20.55 20.6377 21.021 20.2463 21.413C19.855 21.805 19.384 22.0007 18.8333 22Z" fill="#383A47"/>
</svg>
